<svg id="svg3523" xmlns="http://www.w3.org/2000/svg" xmlns:xlink="http://www.w3.org/1999/xlink" viewBox="0 0 189.58 250.03"><defs><style>.cls-1{stroke:#000;stroke-width:4px;fill:url(#linear-gradient);}.cls-2{fill:#fff;}</style><linearGradient id="linear-gradient" x1="235.06" y1="-99.39" x2="127.22" y2="52.48" gradientTransform="matrix(1.01, 0, 0, -0.97, -87.7, 44.08)" gradientUnits="userSpaceOnUse"><stop offset="0"/><stop offset="1" stop-color="#fff" stop-opacity="0"/></linearGradient></defs><path id="path1334" class="cls-1" d="M166.11,267c-35-.37-63.32-27.78-63.32-61.55s28.37-61.17,63.32-61.31,63.32-27.54,63.32-61.31S201.06,21.67,166.11,21C98.62,20.3,43.85,75.57,43.85,143.66S98.62,267,166.11,267Z" transform="translate(-41.85 -18.98)"/><path id="path2304" class="cls-2" d="M178.73,75a14,14,0,0,1-28,.8c0-.27,0-.53,0-.8a14,14,0,0,1,28-.8C178.74,74.47,178.74,74.73,178.73,75Z" transform="translate(-41.85 -18.98)"/></svg>