<svg id="Layer_2" data-name="Layer 2" xmlns="http://www.w3.org/2000/svg" xmlns:xlink="http://www.w3.org/1999/xlink" viewBox="0 0 189.58 250.04"><defs><style>.cls-1{stroke:#000;stroke-width:4px;fill:url(#linear-gradient);}</style><linearGradient id="linear-gradient" x1="261.46" y1="-98.83" x2="335.15" y2="-200.37" gradientTransform="matrix(1.01, 0, 0, -0.97, -87.7, 44.08)" gradientUnits="userSpaceOnUse"><stop offset="0" stop-color="#fff"/><stop offset="1" stop-color="#7d7d7d" stop-opacity="0.99"/></linearGradient></defs><g id="layer1"><g id="g2336"><path id="path2238" class="cls-1" d="M164,21c35,.38,63.33,27.78,63.33,61.55S199,143.7,164,143.85s-63.31,27.54-63.31,61.31S129.08,266.33,164,267c67.5.68,122.27-54.58,122.27-122.68S231.52,21,164,21Z" transform="translate(-98.71 -18.98)"/><g id="g2322"><path id="path2240" d="M177.64,202.49a14,14,0,0,1-28,.8c0-.26,0-.53,0-.8a14,14,0,0,1,28-.79C177.65,202,177.65,202.23,177.64,202.49Z" transform="translate(-98.71 -18.98)"/></g></g></g></svg>